<?xml version="1.0" standalone="no"?>
<!DOCTYPE svg PUBLIC "-//W3C//DTD SVG 20010904//EN"
 "http://www.w3.org/TR/2001/REC-SVG-20010904/DTD/svg10.dtd">
<svg version="1.0" xmlns="http://www.w3.org/2000/svg"
 width="300.000000pt" height="300.000000pt" viewBox="0 0 300.000000 300.000000"
 preserveAspectRatio="xMidYMid meet">
<metadata>
Created by Brian Rosero.
</metadata>
<g transform="translate(0.000000,300.000000) scale(0.100000,-0.100000)"
fill="#004a8f" stroke="none">
<path d="M515 2536 c-99 -43 -157 -151 -135 -250 12 -56 920 -1648 968 -1698
36 -38 104 -68 152 -68 48 0 116 30 152 68 29 30 868 1483 948 1641 58 115 4
257 -117 308 -47 19 -1923 19 -1968 -1z m1983 -63 c67 -44 97 -138 66 -211 -7
-18 -121 -221 -254 -452 -132 -231 -240 -422 -240 -425 0 -3 -15 -29 -34 -58
-28 -44 -83 -139 -313 -547 -86 -151 -106 -176 -158 -196 -51 -19 -114 -13
-161 15 -25 15 -74 85 -130 186 -6 11 -21 38 -34 60 -12 22 -90 159 -173 305
-82 146 -160 281 -172 300 -12 19 -33 55 -47 80 -14 25 -114 201 -222 392
-176 310 -198 353 -199 396 -3 66 25 122 76 155 l41 27 956 0 956 0 42 -27z"/>
<path d="M683 2443 c37 -2 97 -2 135 0 37 2 6 3 -68 3 -74 0 -105 -1 -67 -3z"/>
<path d="M1330 2438 c102 -8 398 -4 408 7 3 3 -111 4 -254 4 -229 -2 -247 -3
-154 -11z"/>
<path d="M929 2400 c-323 -5 -348 -6 -368 -24 -25 -23 -27 -64 -5 -92 15 -19
16 -19 9 1 -17 48 -16 55 9 79 l25 26 296 0 c187 0 295 -4 295 -10 0 -5 -17
-20 -37 -33 -114 -72 -213 -203 -257 -336 -14 -45 -26 -94 -26 -109 0 -41 -12
-102 -19 -102 -7 0 -73 108 -126 205 -15 28 -32 55 -37 60 -15 14 16 -45 80
-155 31 -52 68 -121 84 -152 15 -32 29 -58 31 -58 1 0 1 44 -1 98 -8 181 53
331 189 464 55 54 110 91 171 115 46 17 72 35 48 31 -8 -1 -171 -5 -361 -8z"/>
<path d="M1708 2399 c4 -3 27 -14 51 -23 98 -38 207 -132 267 -232 77 -128 98
-206 92 -344 -2 -55 -2 -100 -1 -100 2 0 23 39 48 88 25 48 59 111 76 140 17
28 29 52 26 52 -2 0 -26 -37 -53 -82 -26 -46 -53 -86 -58 -90 -7 -5 -15 19
-23 69 -24 157 -79 275 -173 373 -36 37 -84 79 -107 94 -24 14 -43 31 -43 36
0 11 558 14 596 4 34 -9 49 -46 35 -86 -10 -30 -9 -31 4 -14 21 28 19 61 -7
90 l-23 26 -357 2 c-196 2 -354 0 -350 -3z"/>
<path d="M1419 2380 c-132 -21 -231 -71 -329 -169 -108 -109 -160 -237 -160
-399 0 -159 55 -294 165 -404 112 -112 246 -168 405 -168 282 0 516 198 565
478 40 228 -72 472 -272 589 -104 61 -258 91 -374 73z m226 -32 c159 -41 318
-185 374 -340 43 -118 49 -192 26 -303 -55 -263 -299 -460 -557 -450 -147 6
-275 61 -377 163 -175 176 -215 418 -106 638 100 203 307 323 530 307 39 -2
88 -9 110 -15z"/>
<path d="M1405 2288 c-118 -22 -245 -111 -316 -220 -53 -83 -72 -164 -67 -286
3 -91 7 -106 42 -178 86 -174 245 -274 436 -274 192 0 352 102 436 276 34 71
38 88 42 179 3 76 0 116 -12 158 -70 242 -314 392 -561 345z m230 -48 c235
-81 361 -310 300 -545 -60 -231 -309 -380 -538 -320 -84 22 -143 53 -200 105
-300 276 -108 777 299 779 56 1 99 -5 139 -19z"/>
<path d="M1363 2201 c-168 -62 -273 -212 -273 -391 0 -86 21 -154 70 -227 161
-241 519 -241 681 1 49 73 69 140 69 228 0 162 -90 303 -240 375 -75 37 -228
43 -307 14z m270 -27 c83 -29 176 -115 215 -198 90 -191 10 -414 -183 -511
-55 -28 -68 -30 -165 -30 -94 0 -111 3 -161 28 -70 34 -145 106 -182 176 -33
60 -47 157 -34 240 22 147 158 286 304 311 57 9 154 2 206 -16z"/>
<path d="M1402 2014 c-64 -32 -97 -70 -117 -136 -19 -64 -19 -72 0 -134 27
-93 112 -154 215 -154 105 0 188 61 217 159 30 106 -21 220 -120 267 -69 32
-129 31 -195 -2z m164 1 c55 -16 110 -63 130 -112 8 -18 14 -61 14 -97 0 -55
-4 -70 -32 -112 -42 -62 -101 -94 -175 -94 -129 0 -215 84 -214 210 0 32 6 73
14 92 29 66 116 125 188 127 14 1 48 -6 75 -14z"/>
<path d="M2468 2248 c-15 -29 -26 -53 -24 -55 1 -2 15 20 30 48 16 28 26 52
24 54 -2 2 -16 -19 -30 -47z"/>
<path d="M606 2193 c43 -78 49 -87 39 -55 -7 25 -65 122 -72 122 -2 0 13 -30
33 -67z"/>
<path d="M575 2155 c15 -27 32 -54 38 -60 6 -5 -2 13 -18 40 -15 28 -32 55
-38 60 -6 6 2 -12 18 -40z"/>
<path d="M2400 2129 c-17 -28 -29 -53 -26 -56 2 -3 12 10 22 29 9 18 24 43 32
56 8 12 12 22 9 22 -3 0 -19 -23 -37 -51z"/>
<path d="M2312 2068 c-24 -39 -41 -72 -39 -74 2 -3 23 28 46 67 23 40 40 73
38 75 -1 2 -22 -29 -45 -68z"/>
<path d="M2353 2048 c-16 -24 -56 -103 -46 -93 14 14 66 105 60 105 -2 0 -9
-6 -14 -12z"/>
<path d="M673 1983 c2 -5 40 -71 84 -148 44 -77 95 -167 113 -200 57 -104 71
-127 147 -257 41 -71 77 -128 79 -128 6 0 -67 135 -118 218 -21 34 -38 64 -38
67 0 2 -29 54 -65 115 -36 61 -77 132 -91 158 -49 87 -106 182 -111 182 -2 0
-2 -3 0 -7z"/>
<path d="M2179 1744 c-91 -157 -113 -194 -151 -264 -17 -30 -39 -69 -49 -86
-9 -17 -23 -42 -31 -55 -7 -13 -15 -26 -18 -29 -10 -10 -40 -73 -37 -77 2 -2
26 34 52 79 26 46 60 103 76 128 15 25 41 70 57 100 62 114 165 295 175 308 5
7 7 15 5 18 -3 3 -39 -52 -79 -122z"/>
<path d="M1868 1313 c-59 -50 -177 -103 -257 -115 -75 -12 -224 -4 -291 15
-58 16 -134 57 -184 96 -49 39 -53 39 -26 -1 12 -18 24 -41 27 -50 6 -21 19
-23 26 -5 3 9 20 4 63 -16 88 -41 164 -57 272 -57 113 1 160 10 260 51 41 17
76 28 79 25 3 -3 -16 -43 -41 -89 -25 -47 -46 -89 -46 -94 0 -4 24 35 53 87
29 52 67 116 85 143 18 26 31 47 28 47 -2 0 -24 -16 -48 -37z"/>
<path d="M1114 1213 c33 -65 158 -279 168 -288 12 -11 -14 37 -108 200 -36 63
-68 115 -70 115 -3 0 2 -12 10 -27z"/>
<path d="M1835 1138 c-26 -46 -50 -86 -52 -90 -2 -5 -2 -8 1 -8 3 0 37 57 103
173 2 4 2 7 -1 7 -2 0 -25 -37 -51 -82z"/>
<path d="M1200 1155 c18 -33 37 -64 42 -70 15 -15 -38 87 -57 110 -9 11 -2 -7
15 -40z"/>
<path d="M1767 1023 c-44 -79 -56 -104 -42 -88 19 23 58 95 51 95 -3 0 -7 -3
-9 -7z"/>
<path d="M1671 949 c-39 -68 -51 -94 -32 -73 13 14 83 144 78 144 -3 0 -24
-32 -46 -71z"/>
<path d="M1356 883 c72 -130 89 -156 112 -171 14 -9 22 -10 22 -3 0 6 -5 11
-11 11 -16 0 -31 21 -95 133 -30 53 -58 97 -60 97 -3 0 11 -30 32 -67z"/>
<path d="M1661 839 c-22 -39 -41 -75 -41 -79 0 -4 -7 -13 -15 -20 -8 -7 -15
-17 -15 -23 0 -7 3 -7 9 -1 16 15 112 186 108 191 -2 2 -23 -29 -46 -68z"/>
<path d="M1341 814 c58 -101 79 -132 79 -118 0 5 -4 14 -9 20 -10 10 -61 98
-88 152 -9 17 -20 32 -24 32 -5 0 14 -39 42 -86z"/>
<path d="M1555 750 c-11 -16 -27 -32 -35 -34 -9 -3 -7 -4 4 -3 19 2 64 52 55
61 -2 3 -13 -8 -24 -24z"/>
</g>
</svg>
