<?xml version="1.0" standalone="no"?>
<!DOCTYPE svg PUBLIC "-//W3C//DTD SVG 20010904//EN"
        "http://www.w3.org/TR/2001/REC-SVG-20010904/DTD/svg10.dtd">
<svg version="1.0" xmlns="http://www.w3.org/2000/svg"
     width="300.000000pt" height="300.000000pt" viewBox="0 0 460.749 300.000000"
     preserveAspectRatio="xMidYMid meet"
     id="svg8"
>
    <metadata>
        Created by Brian Rosero.
    </metadata>
<g>
    <!-- Grupo principal -->
    <g id="main-group" transform="translate(0.000000,300.000000) scale(0.100000,-0.100000)"
       fill="#004A8F" stroke="none">
        <!-- Path: Contorno principal -->
        <path id="outline" d="M515 2536 c-99 -43 -157 -151 -135 -250 12 -56 920 -1648 968 -1698
36 -38 104 -68 152 -68 48 0 116 30 152 68 29 30 868 1483 948 1641 58 115 4
257 -117 308 -47 19 -1923 19 -1968 -1z m1983 -63 c67 -44 97 -138 66 -211 -7
-18 -121 -221 -254 -452 -132 -231 -240 -422 -240 -425 0 -3 -15 -29 -34 -58
-28 -44 -83 -139 -313 -547 -86 -151 -106 -176 -158 -196 -51 -19 -114 -13
-161 15 -25 15 -74 85 -130 186 -6 11 -21 38 -34 60 -12 22 -90 159 -173 305
-82 146 -160 281 -172 300 -12 19 -33 55 -47 80 -14 25 -114 201 -222 392
-176 310 -198 353 -199 396 -3 66 25 122 76 155 l41 27 956 0 956 0 42 -27z"/>
    </g>

    <!-- Path: Líneas horizontales -->
    <g id="lines" transform="translate(0.000000,300.000000) scale(0.100000,-0.100000)"
       fill="#004A8F" stroke="none">
        <path id="line-1" d="M673 1983 c2 -5 40 -71 84 -148 44 -77 95 -167 113 -200 57 -104 71
-127 147 -257 41 -71 77 -128 79 -128 6 0 -67 135 -118 218 -21 34 -38 64 -38
67 0 2 -29 54 -65 115 -36 61 -77 132 -91 158 -49 87 -106 182 -111 182 -2 0
-2 -3 0 -7z"/>
        <path id="line-2" d="M311 -120 c2 -5 40 -71 84 -148 44 -77 95 -167 113 -200 57 -104 71
-127 147 -257 41 -71 77 -128 79 -128 6 0 -67 135 -118 218 -21 34 -38 64 -38
67 0 2 -29 54 -65 115 -36 61 -77 132 -91 158 -49 87 -106 182 -111 182 -2 0
-2 -3 0 -7z" transform="rotate(119, 700, 1000)"/>
        <path id="line-3" d="M2143 1383 c2 -5 40 -71 84 -148 44 -77 95 -167 113 -200 57 -104 71
-127 147 -257 41 -71 77 -128 79 -128 6 0 -67 135 -118 218 -21 34 -38 64 -38
67 0 2 -29 54 -65 115 -36 61 -77 132 -91 158 -49 87 -106 182 -111 182 -2 0
-2 -3 0 -7z" transform="rotate(60, 700, 1000)"/>
    </g>

    <!-- Grupo: Elementos de la izquierda -->
    <g id="main-group" transform="translate(0.000000,300.000000) scale(0.100000,-0.100000)"
       fill="#004A8F" stroke="none">
        <path id="left-element-1" d="M929 2400 c-323 -5 -348 -6 -368 -24 -25 -23 -27 -64 -5 -92 15 -19
    16 -19 9 1 -17 48 -16 55 9 79 l25 26 296 0 c187 0 295 -4 295 -10 0 -5 -17
    -20 -37 -33 -114 -72 -213 -203 -257 -336 -14 -45 -26 -94 -26 -109 0 -41 -12
    -102 -19 -102 -7 0 -73 108 -126 205 -15 28 -32 55 -37 60 -15 14 16 -45 80
    -155 31 -52 68 -121 84 -152 15 -32 29 -58 31 -58 1 0 1 44 -1 98 -8 181 53
    331 189 464 55 54 110 91 171 115 46 17 72 35 48 31 -8 -1 -171 -5 -361 -8z"/>
        <path id="left-element-2" d="M1708 2399 c4 -3 27 -14 51 -23 98 -38 207 -132 267 -232 77 -128 98
-206 92 -344 -2 -55 -2 -100 -1 -100 2 0 23 39 48 88 25 48 59 111 76 140 17
28 29 52 26 52 -2 0 -26 -37 -53 -82 -26 -46 -53 -86 -58 -90 -7 -5 -15 19
-23 69 -24 157 -79 275 -173 373 -36 37 -84 79 -107 94 -24 14 -43 31 -43 36
0 11 558 14 596 4 34 -9 49 -46 35 -86 -10 -30 -9 -31 4 -14 21 28 19 61 -7
90 l-23 26 -357 2 c-196 2 -354 0 -350 -3z"/>
        <path id="left-element-3" d="M-190 1869 c4 -3 27 -14 51 -23 98 -38 207 -132 267 -232 77 -128 98
-206 92 -344 -2 -55 -2 -100 -1 -100 2 0 23 39 48 88 25 48 59 111 76 140 17
28 29 52 26 52 -2 0 -26 -37 -53 -82 -26 -46 -53 -86 -58 -90 -7 -5 -15 19
-23 69 -24 157 -79 275 -173 373 -36 37 -84 79 -107 94 -24 14 -43 31 -43 36
0 11 558 14 596 4 34 -9 49 -46 35 -86 -10 -30 -9 -31 4 -14 21 28 19 61 -7
90 l-23 26 -357 2 c-196 2 -354 0 -350 -3z" transform="rotate(-120, 700, 1000)"/>
    </g>
    <!-- Grupo: Elementos centrales -->
    <g id="main-group" transform="translate(0.000000,300.000000) scale(0.100000,-0.100000)"
        stroke="none">
            <path style="fill:#004A8F" id="center-circle1" d="M1419 2380 c-132 -21 -231 -71 -329 -169 -108 -109 -160 -237 -160
    -399 0 -159 55 -294 165 -404 112 -112 246 -168 405 -168 282 0 516 198 565
    478 40 228 -72 472 -272 589 -104 61 -258 91 -374 73z m226 -32 c159 -41 318
    -185 374 -340 43 -118 49 -192 26 -303 -55 -263 -299 -460 -557 -450 -147 6
    -275 61 -377 163 -175 176 -215 418 -106 638 100 203 307 323 530 307 39 -2
    88 -9 110 -15z"/>
        <path style="fill:#004A8F" id="center-circle2" d="M1405 2288 c-118 -22 -245 -111 -316 -220 -53 -83 -72 -164 -67 -286
3 -91 7 -106 42 -178 86 -174 245 -274 436 -274 192 0 352 102 436 276 34 71
38 88 42 179 3 76 0 116 -12 158 -70 242 -314 392 -561 345z m230 -48 c235
-81 361 -310 300 -545 -60 -231 -309 -380 -538 -320 -84 22 -143 53 -200 105
-300 276 -108 777 299 779 56 1 99 -5 139 -19z"/>

        <path style="fill:#004A8F" id="center-circle3" d="M1363 2201 c-168 -62 -273 -212 -273 -391 0 -86 21 -154 70 -227 161
-241 519 -241 681 1 49 73 69 140 69 228 0 162 -90 303 -240 375 -75 37 -228
43 -307 14z m270 -27 c83 -29 176 -115 215 -198 90 -191 10 -414 -183 -511
-55 -28 -68 -30 -165 -30 -94 0 -111 3 -161 28 -70 34 -145 106 -182 176 -33
60 -47 157 -34 240 22 147 158 286 304 311 57 9 154 2 206 -16z"/>

        <path style="fill:#004A8F;fill-opacity:1;stroke-width:3.70099;stroke-linecap:round;stroke-linejoin:round;paint-order:stroke fill markers;stop-color:#000000"
                id="path885"
                transform="matrix(1.2454324,-0.00286123,0.00286123,1.2454324,764.16544,2272.7385)"
                d="m 775.5465, -187.3878 c -24.58404,24.584 -40.98351,16.8523
                -71.9612,32.6363 -30.9777,15.7839 -34.36201,33.5959 -68.70105,39.0347
                -34.33904,5.4387 -43.06193,-10.4557 -77.40096,-15.8945 -34.33904,-5.4387
                -47.54665,6.9822 -78.52435,-8.8017 -30.97769,-15.7839 -28.69215,-33.7699
                -53.27619,-58.354 -24.58404,-24.584 -42.57008,-22.2985 -58.354,-53.2762
                -15.78393,-30.9777 -3.36296,-44.1853 -8.80173,-78.5243 -5.43877,-34.339
                -21.33318,-43.0619 -15.89442,-77.401 5.43877,-34.339 23.25078,-37.7233
                39.03471,-68.701 15.78392,-30.9777 8.05225,-47.3772 32.63629,-71.9612
                24.58403,-24.5841 40.98351,-16.8524 71.9612,-32.6363 30.97769,-15.7839
                34.36201,-33.596 68.70105,-39.0347 34.33904,-5.4388 43.06193,10.4556
                77.40096,15.8944 34.33904,5.4388 47.54665,-6.9822 78.52435,8.8017 30.97769,15.7839
                28.69215,33.77 53.27618,58.354 24.58404,24.5841 42.57009,22.2985 58.35401,53.2762
                15.78392,30.9777 3.36295,44.1853 8.80172,78.5243 5.43877,34.3391 21.33319,43.062
                15.89442,77.401 -5.43876,34.3391 -23.25078,37.7234 -39.0347,68.7011 -15.78392,30.9777
                -8.05225,47.3771 -32.63629,71.9612 z"/> -->

        <path style="fill:#004A8F" id="center-circle4"
                d="M1402 2014 c-64 -32 -97 -70 -117 -136 -19 -64 -19 -72 0 -134 27
-93 112 -154 215 -154 105 0 188 61 217 159 30 106 -21 220 -120 267 -69 32
-129 31 -195 -2z m164 1 c55 -16 110 -63 130 -112 8 -18 14 -61 14 -97 0 -55
-4 -70 -32 -112 -42 -62 -101 -94 -175 -94 -129 0 -215 84 -214 210 0 32 6 73
14 92 29 66 116 125 188 127 14 1 48 -6 75 -14z"/>
        <!-- Path: Elementos adicionales -->
    </g>
</g>
</svg>

